# xmcd
# 
# Track frame offsets:
#     150
#     15542
#     31596
#     52699
#     65910
#     88609
#     103248
#     120583
#     136786
#     172074
#     197550
#     217105
#     234506
#     245117
#     263276
#     278745
# 
# Disc length: 3992
# 
# Revision: 3
# Processed by: cddbd v1.5.2PL0 Copyright (c) Steve Scherf et al.
# Submitted via: fre:ac v1.0.31
# 
DISCID=da0f9610
DTITLE=Duke Robillard - Stomp! The Blues Tonight
DYEAR=2009
DGENRE=Blues
TTITLE0=Stomp The Blues Tonight
TTITLE1=Do Me Right
TTITLE2=Three Hours Past Midnight
TTITLE3=Baby You Don't Know
TTITLE4=I Wanna Hug You, Kiss You, Squeeze You
TTITLE5=Frankie and Johnny
TTITLE6=Look But Don't Touch
TTITLE7=Playful Baby
TTITLE8=Million Dollar Secret
TTITLE9=Jumpin' The Bone
TTITLE10=Hands Off!
TTITLE11=Money's Gettin' Cheaper
TTITLE12=For You My Love
TTITLE13=Tore Up
TTITLE14=Ain't Nobody's Business
TTITLE15=Early In The Morning
EXTD=
EXTT0=
EXTT1=
EXTT2=
EXTT3=
EXTT4=
EXTT5=
EXTT6=
EXTT7=
EXTT8=
EXTT9=
EXTT10=
EXTT11=
EXTT12=
EXTT13=
EXTT14=
EXTT15=
PLAYORDER=
